<svg id="Layer_1" data-name="Layer 1" xmlns="http://www.w3.org/2000/svg" viewBox="0 0 1024 768"><defs><style>.cls-1{fill:#4275b9;}.cls-2{fill:#f7941d;}</style></defs><path class="cls-1" d="M496.25,267.85l4.82.14a68.16,68.16,0,0,1,9.53,1.48,65.17,65.17,0,0,1,44,34.66c.35.72,1.25,2.91,2.07,4.92a2.64,2.64,0,0,0,4.5.66,10.43,10.43,0,0,0,2.12-3.4,1.15,1.15,0,0,0-.08-.75l-1.24-3a76.09,76.09,0,0,0-7.62-12.5c-11.82-15.69-30.3-27-49.56-29a78.94,78.94,0,0,0-29.58,2.31,73,73,0,0,0-25.89,13.88c-1.9,1.64-3.81,3.27-5.6,5.08a58.31,58.31,0,0,0-5,5.44,65.29,65.29,0,0,0-8,12.31,72.15,72.15,0,0,0-3,6.8c-.45,1.16-.84,2.34-1.23,3.53l-.55,1.79a16.4,16.4,0,0,1-1.7,4,12,12,0,0,1-5,4.52,14.25,14.25,0,0,1-4.69,1.27l-2.12.2c-.64.06-1.28.1-1.91.19-2.54.31-5.06.68-7.55,1.19A79.61,79.61,0,0,0,375,334.81a87.24,87.24,0,0,0-22.22,20.75,82.45,82.45,0,0,0-15.48,42.72l-.31,3.84,0,3.85c0,1.29,0,2.58,0,3.87l.39,3.84A85.24,85.24,0,0,0,392.6,484l1.86.74,1.92.55,3.83,1.13a63.66,63.66,0,0,0,7.81,1.83c2.62.47,20.1,3.55,33.52,2.52s33.83-6.07,38.63-14.18A7,7,0,0,0,481,472a1.83,1.83,0,0,0-2.12-1.47,270.32,270.32,0,0,1-42.47,3.68c-33.12,0-45.51-8-50.73-10.89a59.07,59.07,0,0,1-7.49-4.83c-2.36-1.7-4.62-3.59-6.83-5.53A67,67,0,0,1,352,423.07a68.52,68.52,0,0,1-2.9-17.87,83.84,83.84,0,0,1,1.42-17.93,69.38,69.38,0,0,1,16-32.56,72.28,72.28,0,0,1,13.9-12.11,73.77,73.77,0,0,1,16.51-8.1,71,71,0,0,1,34.77-3.42c.05,0,.05,0,.05-.07a62.82,62.82,0,0,1,3.1-18.09A65.55,65.55,0,0,1,456.22,282a68,68,0,0,1,16.54-9.56,63.7,63.7,0,0,1,18.67-4.33C493,268,494.64,267.8,496.25,267.85Z"/><path class="cls-1" d="M617.7,398l16.23-28,8.12-14c1.41-2.41,2.89-4.49,2.47-6.42a9.55,9.55,0,0,0-1.45-3.17l-2-3.5-16-28.12-8-14.06-4-7-2-3.54a7.1,7.1,0,0,0-.93-1.5,1.62,1.62,0,0,0-.49-.37,3.77,3.77,0,0,0-.47-.15,4.67,4.67,0,0,0-.53.24,2.48,2.48,0,0,0-.54.45,6.73,6.73,0,0,0-.91,1.48c-.62,1.28-1.33,2.4-2,3.59l-4,7-8,14.06-16,28.12L545,399.19l-16.12,28-8,14a26.67,26.67,0,0,0-1.76,3.33,6,6,0,0,0-.44,3.08,8.3,8.3,0,0,0,1.19,3.07l2,3.5,16.24,28,8.12,14,4.06,7c.67,1.14,1.37,2.41,2,3.36a7.41,7.41,0,0,0,1,1.22,1.29,1.29,0,0,0,.28.21,1.81,1.81,0,0,0,.39-.35,9.57,9.57,0,0,0,1-1.33l2-3.41,4-7,8.1-14,16.23-28Z"/><path class="cls-1" d="M500.12,433.26l27.41-48,13.71-24,1.71-3a13.6,13.6,0,0,0,1.25-2.81,7.21,7.21,0,0,0-.55-5.51c-.22-.46-.47-.91-.74-1.37l-.88-1.49-1.75-3-3.51-5.95-14-23.82-3.5-5.95-1.75-3c-.43-.72-3.6-5.88-5.84-9.33a2.54,2.54,0,0,0-4.28,0c-2.69,4.23-5.17,8.45-5.66,9.3l-1.74,3-3.49,6-13.93,23.87L454.7,386l-27.86,47.73-6.93,11.91a11.05,11.05,0,0,0-1.18,2.77c0,.38-.07.21.09.35a3.46,3.46,0,0,0,1.18.33,64.49,64.49,0,0,0,6.75.21l27.63.15,27.67,0c2.36,0,4.49.14,6.47-.53a9,9,0,0,0,4.74-3.72c.6-.86,1.12-1.86,1.71-2.87l1.72-3Z"/><path class="cls-2" d="M678.49,433,664.7,409.38l-6.9-11.83-3.44-5.92-1.72-2.93c-.52-.88-1.3-1.79-1.79-1.88-.3-.2-1.1.47-1.68,1.33S648,390,647.45,391L644,396.92l-6.91,11.82-13.8,23.66-6.9,11.82a9.56,9.56,0,0,0-1.23,2.91,1.47,1.47,0,0,0,1.21,1.84,11.71,11.71,0,0,0,3.19.33H623l27.39.1,27.39-.11,3.42,0a17.6,17.6,0,0,0,3.29-.17c1.07-.18,1.87-.62,1.87-1.42a6,6,0,0,0-1-2.83Z"/></svg>